<?xml version="1.0" ?><!DOCTYPE svg  PUBLIC '-//W3C//DTD SVG 1.1//EN'  'http://www.w3.org/Graphics/SVG/1.1/DTD/svg11.dtd'><svg height="512px" style="enable-background:new 0 0 512 512;" version="1.1" viewBox="0 0 512 512" width="512px" xml:space="preserve" xmlns="http://www.w3.org/2000/svg" xmlns:xlink="http://www.w3.org/1999/xlink"><g id="_x36_20_x2C__cake_x2C___love_x2C__heart_x2C__wedding"><g><path d="M455.35,380.36v31.11c0,27.85-22.59,50.439-50.439,50.439H107.09    c-27.85,0-50.439-22.59-50.439-50.439v-31.11h45.31v36.24H419.1v-36.24H455.35z" style="fill:#FFECB2;"/><g><polygon points="93.96,387.386 93.96,423.626 411.1,423.626 411.1,416.601 101.96,416.601 101.96,380.36      56.65,380.36 56.65,387.386    " style="fill:#EAD496;"/><path d="M419.1,380.36v7.025h28.25v31.11c0,13.176-5.062,25.17-13.339,34.156     c12.904-9.138,21.339-24.173,21.339-41.182v-31.11H419.1z" style="fill:#EAD496;"/></g><path d="M419.1,380.36v36.24H101.96v-36.24v-22.19c0,0,42.29,36.24,84.57,0c42.29-36.25,74,9.061,74,9.061    s31.72-45.311,74-9.061c42.29,36.24,84.569,0,84.569,0V380.36z" style="fill:#743629;"/><g><path d="M112.09,409.351v-36.24v-8.173c-6.38-3.556-10.13-6.768-10.13-6.768v22.19v36.24H419.1v-7.25     H112.09z" style="fill:#60281E;"/></g><path d="M369.27,72.271c7.5,0,13.591,6.09,13.591,13.6c0,7.5-6.091,13.59-13.591,13.59    c-7.51,0-13.6-6.09-13.6-13.59C355.67,78.36,361.76,72.271,369.27,72.271z" style="fill:#EF3E5C;"/><path d="M371.186,81.948c4.814,0,9.038,2.518,11.453,6.301c0.137-0.773,0.222-1.566,0.222-2.379    c0-7.51-6.091-13.6-13.591-13.6c-7.51,0-13.6,6.09-13.6,13.6c0,2.686,0.791,5.183,2.139,7.292    C358.938,86.792,364.491,81.948,371.186,81.948z" style="fill:#E42A53;"/><path d="M285.43,45.09c13.78,0,24.94,10.23,24.94,22.851c0,22.85-24.94,35.859-49.851,58.699    C235.601,103.8,210.69,90.79,210.69,67.94c0-12.62,11.16-22.851,24.91-22.851c12.46,0,18.689,5.71,24.919,17.141    C266.74,50.8,272.97,45.09,285.43,45.09z" style="fill:#EF3E5C;"/><g><g><g><path d="M227.69,72.94c0-12.229,10.479-22.214,23.64-22.821c-4.08-3.343-8.989-5.029-15.729-5.029       c-13.75,0-24.91,10.23-24.91,22.851c0,22.85,24.91,35.859,49.829,58.699c1.855-1.701,3.71-3.342,5.556-4.942       C245.506,104.552,227.69,92.264,227.69,72.94z" style="fill:#E42A53;"/></g></g></g><path d="M371.53,184.63v30.811c0,0-29.601,25.37-59.2,0s-51.8,6.34-51.8,6.34s-22.2-31.71-51.8-6.34    c-29.601,25.37-59.2,0-59.2,0V184.63c0-32.02,25.96-57.99,57.99-57.99h52.999h53.021C345.57,126.64,371.53,152.61,371.53,184.63z" style="fill:#FFD55E;"/><path d="M158.696,195.811c0-32.02,25.961-57.99,57.99-57.99h52.999h53.021    c15.477,0,29.525,6.076,39.924,15.956c-10.265-16.297-28.405-27.137-49.091-27.137H260.52h-52.999    c-32.03,0-57.99,25.971-57.99,57.99v30.811c0,0,3.448,2.954,9.166,5.838V195.811z" style="fill:#EABA42;"/><path d="M371.53,215.44v38.06h-222v-38.06c0,0,29.6,25.37,59.2,0c29.6-25.37,51.8,6.34,51.8,6.34    s22.2-31.71,51.8-6.34S371.53,215.44,371.53,215.44z" style="fill:#FFC230;"/><path d="M152.78,224.94c0,0,29.6,25.37,59.2,0c29.6-25.37,51.8,6.34,51.8,6.34s22.2-31.71,51.8-6.34    c23.744,20.351,47.484,8.054,55.95,2.391V215.44c0,0-29.601,25.37-59.2,0s-51.8,6.34-51.8,6.34s-22.2-31.71-51.8-6.34    c-29.601,25.37-59.2,0-59.2,0v38.06h3.25V224.94z" style="fill:#EAA61F;"/><path d="M101.96,298.811v-3.931c0-22.85,18.53-41.38,41.38-41.38h6.19h222h6.189    c22.86,0,41.38,18.53,41.38,41.38v63.29c0,0-42.279,36.24-84.569,0c-42.28-36.25-74,9.061-74,9.061s-31.71-45.311-74-9.061    c-42.28,36.24-84.57,0-84.57,0V298.811z" style="fill:#924B35;"/><g><g><g><path d="M110.46,308.061v-3.931c0-22.85,18.53-41.38,41.38-41.38h6.19h222h6.189       c9.801,0,18.797,3.413,25.885,9.104c-7.426-11.067-20.051-18.354-34.385-18.354h-6.189h-222h-6.19       c-22.85,0-41.38,18.53-41.38,41.38v3.931v59.359c0,0,3.118,2.669,8.5,5.833V308.061z" style="fill:#743629;"/></g><g><path d="M260.489,367.173c0.024,0.034,0.041,0.058,0.041,0.058s0.007-0.009,0.009-0.013       C260.522,367.203,260.506,367.188,260.489,367.173z" style="fill:#743629;"/></g></g></g><path d="M315.37,303.811H106.96c-2.761,0-5-2.238-5-5s2.239-5,5-5h208.41c2.762,0,5,2.238,5,5    S318.132,303.811,315.37,303.811z" style="fill:#743629;"/><path d="M295.42,176.95H156.33c-2.761,0-5-2.239-5-5c0-2.762,2.239-5,5-5h139.09c2.762,0,5,2.238,5,5    C300.42,174.711,298.182,176.95,295.42,176.95z" style="fill:#EABA42;"/><path d="M130.689,90.865c7.5,0,13.591,6.09,13.591,13.6c0,7.5-6.091,13.59-13.591,13.59    c-7.51,0-13.6-6.09-13.6-13.59C117.09,96.955,123.18,90.865,130.689,90.865z" style="fill:#EF3E5C;"/><path d="M132.605,100.543c4.814,0,9.038,2.518,11.453,6.301c0.137-0.773,0.222-1.566,0.222-2.379    c0-7.51-6.091-13.6-13.591-13.6c-7.51,0-13.6,6.09-13.6,13.6c0,2.686,0.791,5.183,2.139,7.292    C120.358,105.387,125.911,100.543,132.605,100.543z" style="fill:#E42A53;"/><path d="M411.539,202.54c7.5,0,13.591,6.09,13.591,13.6c0,7.5-6.091,13.59-13.591,13.59    c-7.51,0-13.6-6.09-13.6-13.59C397.939,208.63,404.029,202.54,411.539,202.54z" style="fill:#EF3E5C;"/><path d="M413.455,212.218c4.814,0,9.038,2.518,11.453,6.301c0.137-0.773,0.222-1.566,0.222-2.379    c0-7.51-6.091-13.6-13.591-13.6c-7.51,0-13.6,6.09-13.6,13.6c0,2.686,0.791,5.183,2.139,7.292    C401.208,217.062,406.761,212.218,413.455,212.218z" style="fill:#E42A53;"/><path d="M473.47,466.91H38.53c-2.762,0-5-2.238-5-5s2.238-5,5-5H473.47c2.762,0,5,2.238,5,5    S476.231,466.91,473.47,466.91z" style="fill:#FFECB2;"/></g></g><g id="Layer_1"/></svg>